<?xml version="1.0" encoding="utf-8"?>
<!-- Generator: Adobe Illustrator 22.1.0, SVG Export Plug-In . SVG Version: 6.00 Build 0)  -->
<svg version="1.1" id="Layer_1" xmlns="http://www.w3.org/2000/svg" xmlns:xlink="http://www.w3.org/1999/xlink" x="0px" y="0px"
	 viewBox="0 0 457.7 459" style="enable-background:new 0 0 457.7 459;" xml:space="preserve">
<style type="text/css">
	.st0{clip-path:url(#SVGID_2_);}
	.st1{clip-path:url(#SVGID_2_);fill:#FFFFFF;}
	.st2{clip-path:url(#SVGID_4_);fill:#FFFFFF;}
	.st3{clip-path:url(#SVGID_4_);}
</style>
<g>
	<defs>
		<rect id="SVGID_1_" width="457.7" height="459"/>
	</defs>
	<clipPath id="SVGID_2_">
		<use xlink:href="#SVGID_1_"  style="overflow:visible;"/>
	</clipPath>
	<path class="st0" d="M457.7,228.8c0,126.4-102.5,228.8-228.8,228.8c-126.4,0,203.4-117,203.4-243.4S102.5,0,228.8,0
		C355.2,0,457.7,102.5,457.7,228.8"/>
	<path class="st1" d="M457.7,228.8c0,126.4-102.5,228.8-228.8,228.8C102.5,457.7,0,355.2,0,228.8S102.5,0,228.8,0
		C355.2,0,457.7,102.5,457.7,228.8"/>
	<path class="st0" d="M438.5,239.1c0,121.4-93.9,219.9-209.6,219.9c-115.8,0-209.6-98.4-209.6-219.9c0-121.4,93.9-219.9,209.6-219.9
		C344.6,19.2,438.5,117.7,438.5,239.1"/>
	<path class="st1" d="M234.1,77.5c0,0-35.7-2.7-31.3,44.4c0,0-7.7-5.7-6.1,11.1c0,0,3,4.4,2.7,8.1c0,0-1,4.7,4.7,4.4l1.7,7.4
		l-1.7,15.5c0,0-14.5-0.3-18.5,8.4c0,0-14.1-24.2-36.7-12.1c0,0-11.8-20.9-34.3-9.8c0,0,5.7-17.5-1-26.9c0,0,7.1-18.5,10.1-18.8
		c0,0,9.4,9.8,16.8,0.3c0,0,3.7,5.7,8.8-1.3c0,0,15.1-0.7,10.8-20.2c0,0-2-21.2-21.2-17.2c0,0-16.5,3-18.2,2.7c0,0-8.1,4.5-9.9,12.6
		c0,0-46.2,37.2-43.5,66c0,0-16.6,19.3-1.3,30.1c15.3,10.8,6.7,9.4,17.1,13.9c10.3,4.5,8.1,8.5,13.5,16.2c5.4,7.6,22,14.4,36.3,13.5
		c0,0,9.4,9.4,18.8,9.9c0,0,7.6,40.8,21.1,55.6c0,0,8.1,13.9,9,57.9c0,0,49.8,9.3,51.4,9.3C234.7,358.3,234.1,77.5,234.1,77.5"/>
	<path class="st1" d="M234,77.4c0,0,35.7-2.7,31.3,44.4c0,0,7.7-5.7,6.1,11.1c0,0-3,4.4-2.7,8.1c0,0,1,4.7-4.7,4.4l-1.7,7.4
		l1.7,15.5c0,0,14.5-0.3,18.5,8.4c0,0,14.1-24.2,36.7-12.1c0,0,11.8-20.9,34.3-9.8c0,0-5.7-17.5,1-26.9c0,0-7.1-18.5-10.1-18.8
		c0,0-9.4,9.8-16.8,0.3c0,0-3.7,5.7-8.8-1.3c0,0-15.1-0.7-10.8-20.2c0,0,2-21.2,21.2-17.2c0,0,16.5,3,18.2,2.7c0,0,8.1,4.5,9.9,12.6
		c0,0,46.2,37.2,43.5,66c0,0,16.6,19.3,1.3,30.1c-15.3,10.8-6.7,9.4-17,13.9c-10.3,4.5-8.1,8.5-13.5,16.2
		c-5.4,7.6-22,14.4-36.3,13.5c0,0-9.4,9.4-18.8,9.9c0,0-7.6,40.8-21.1,55.6c0,0-8.1,13.9-9,57.9c0,0-52.7,8.6-53.3,9.5
		C232.6,359.1,234,77.4,234,77.4"/>
</g>
<g>
	<defs>
		<rect id="SVGID_3_" width="457.7" height="459"/>
	</defs>
	<clipPath id="SVGID_4_">
		<use xlink:href="#SVGID_3_"  style="overflow:visible;"/>
	</clipPath>
	<path class="st2" d="M225.9,448.3c0,0-17.3-24.1-45.2-23.4c-27.9,0.7-40.4-10.2-40.4-10.2S152,466.6,225.9,448.3"/>
	<path class="st2" d="M177.6,441.3c23.7,8.1,41.7,5.8,47,5.5c-4.4-5.4-20.4-22.4-43.9-21.8c-27.9,0.7-40.4-10.2-40.4-10.2
		S153.9,433.2,177.6,441.3"/>
	<path class="st3" d="M232.2,446.6c0,0-32.7,5.4-62.4-9.3"/>
	<path class="st2" d="M232.5,448.6c0,0-0.3,0-0.7,0.1c-0.5,0.1-1.2,0.1-2.1,0.2c-1.8,0.1-4.3,0.3-7.4,0.3c-1.5,0-3.2,0-4.9-0.1
		c-1.7,0-3.6-0.2-5.5-0.3c-1.9-0.2-3.8-0.3-5.8-0.6c-2-0.3-4-0.5-6-0.9c-1-0.2-2-0.3-3-0.5c-1-0.2-2-0.4-2.9-0.6
		c-1-0.2-1.9-0.4-2.9-0.7c-0.9-0.3-1.9-0.5-2.8-0.8c-0.9-0.3-1.8-0.5-2.7-0.8c-0.9-0.3-1.7-0.6-2.5-0.8c-0.8-0.3-1.6-0.5-2.4-0.8
		c-0.8-0.3-1.5-0.6-2.2-0.9c-1.4-0.6-2.7-1.1-3.8-1.6c-1.1-0.5-2.1-1-2.8-1.4c-1.6-0.8-2.5-1.2-2.5-1.2s0.9,0.4,2.5,1
		c0.8,0.3,1.8,0.7,2.9,1.2c1.1,0.4,2.5,0.8,3.9,1.3c0.7,0.2,1.4,0.5,2.2,0.7c0.8,0.2,1.6,0.4,2.4,0.6c0.8,0.2,1.7,0.4,2.5,0.7
		c0.9,0.2,1.8,0.4,2.7,0.6c0.9,0.2,1.8,0.4,2.8,0.6c0.9,0.2,1.9,0.3,2.9,0.5c1,0.2,1.9,0.3,2.9,0.5c1,0.1,2,0.2,3,0.3
		c2,0.3,3.9,0.4,5.9,0.5c1.9,0.2,3.9,0.1,5.7,0.2c1.9,0,3.6,0,5.3-0.1c1.7-0.1,3.3-0.1,4.8-0.2c3-0.2,5.4-0.5,7.1-0.7
		c0.8-0.1,1.5-0.2,1.9-0.3c0.5-0.1,0.7-0.1,0.7-0.1L232.5,448.6z"/>
	<path class="st2" d="M231.6,448.3c0,0,17.3-24.1,45.2-23.4c27.9,0.7,40.4-10.2,40.4-10.2S305.5,466.6,231.6,448.3"/>
	<path class="st2" d="M279.9,441.3c-23.7,8.1-41.7,5.8-47,5.5c4.4-5.4,20.4-22.4,43.9-21.8c27.9,0.7,40.4-10.2,40.4-10.2
		S303.6,433.2,279.9,441.3"/>
	<path class="st3" d="M225.3,446.6c0,0,32.7,5.4,62.4-9.3"/>
	<path class="st2" d="M225.6,444.6c0,0,0.2,0,0.7,0.1c0.4,0.1,1.1,0.2,1.9,0.3c1.7,0.2,4.1,0.5,7.1,0.7c1.5,0.1,3.1,0.2,4.8,0.2
		c1.7,0.1,3.5,0,5.3,0.1c1.8-0.1,3.8-0.1,5.7-0.2c1.9-0.1,3.9-0.2,5.9-0.5c1-0.1,2-0.2,3-0.3c1-0.2,1.9-0.3,2.9-0.5
		c1-0.2,1.9-0.3,2.9-0.5c0.9-0.2,1.9-0.4,2.8-0.6c0.9-0.2,1.8-0.4,2.7-0.6c0.9-0.2,1.7-0.5,2.5-0.7c0.8-0.2,1.6-0.4,2.4-0.6
		c0.8-0.2,1.5-0.5,2.2-0.7c1.4-0.5,2.7-0.9,3.9-1.3c1.1-0.5,2.1-0.9,2.9-1.2c1.6-0.7,2.5-1,2.5-1s-0.9,0.4-2.5,1.2
		c-0.8,0.4-1.7,0.9-2.8,1.4c-1.1,0.5-2.4,1-3.8,1.6c-0.7,0.3-1.4,0.6-2.2,0.9c-0.8,0.3-1.6,0.5-2.4,0.8c-0.8,0.3-1.7,0.6-2.5,0.8
		c-0.9,0.3-1.8,0.5-2.7,0.8c-0.9,0.3-1.8,0.5-2.8,0.8c-0.9,0.3-1.9,0.4-2.9,0.7c-1,0.2-1.9,0.4-2.9,0.6c-1,0.2-2,0.3-3,0.5
		c-2,0.4-4,0.6-6,0.9c-2,0.3-3.9,0.4-5.8,0.6c-1.9,0.1-3.7,0.2-5.5,0.3c-1.7,0-3.4,0.1-4.9,0.1c-3,0-5.6-0.2-7.4-0.3
		c-0.9-0.1-1.6-0.1-2.1-0.2c-0.5-0.1-0.7-0.1-0.7-0.1L225.6,444.6z"/>
	<path class="st2" d="M59,308.5c-1.6,1.2-2.8,2.6-3.6,4c-0.8,1.4-1.3,2.9-1.5,4.3c-0.2,1.5,0,2.9,0.4,4.3c0.5,1.4,1.2,2.7,2.2,3.8
		c0.8,0.9,1.8,1.7,3,2.2c1.2,0.5,2.4,0.8,3.7,0.9c1.3,0.1,2.6,0,3.8-0.4c1.3-0.3,2.4-0.9,3.4-1.6c-2.5-2.6-4.9-5.2-7.2-7.9
		c1.2-1,2.3-2,3.5-3c3.6,4.1,7.3,8.1,11.2,11.9c-4.2,4.3-8.4,8.5-12.6,12.8c-1.1-1.1-2.3-2.3-3.4-3.4c0.7-1.1,1.5-2.2,2.2-3.2
		c-1-0.1-2-0.2-3-0.5c-1-0.3-2-0.6-3-1c-1-0.4-1.9-1-2.8-1.6c-0.9-0.6-1.7-1.3-2.4-2.1c-1.8-2.1-3.1-4.3-3.9-6.6
		c-0.8-2.3-1-4.5-0.8-6.7c0.2-2.2,0.9-4.2,2.1-6.1c1.2-1.9,2.7-3.6,4.7-5.1c1.1-0.8,2.4-1.6,3.7-2.1c1.3-0.6,2.7-1,4.1-1.3
		c1.4-0.3,2.8-0.4,4.2-0.3c1.4,0.1,2.8,0.3,4.1,0.7c1.3,0.4,2.6,1,3.9,1.8c1.2,0.8,2.4,1.8,3.4,3c1.4,1.6,2.4,3.1,3,4.7
		c0.7,1.6,1.1,3.2,1.2,4.7c0.1,1.6,0,3.2-0.4,4.8c-0.4,1.6-1,3.2-1.8,4.7c-1.4-1.4-2.9-2.9-4.3-4.3c1.1-2.2,1.5-4.3,1.3-6.2
		c-0.2-1.9-1-3.7-2.5-5.4c-1-1.1-2.1-1.9-3.4-2.4c-1.3-0.5-2.7-0.8-4.1-0.7c-1.5,0-2.9,0.3-4.4,0.9C61.8,306.7,60.4,307.5,59,308.5"
		/>
	<path class="st2" d="M106.4,352.9c-1.4,2.1-3,3.8-4.8,5.1c-1.8,1.3-3.7,2.2-5.8,2.6c-2,0.4-4.2,0.3-6.4-0.3
		c-2.2-0.6-4.4-1.8-6.5-3.5c-2.2-1.7-3.8-3.6-4.8-5.7c-1.1-2-1.6-4.1-1.7-6.2c-0.1-2.1,0.3-4.2,1.2-6.2c0.9-2,2.2-4,3.9-5.8
		c1.7-1.8,3.5-3.3,5.5-4.3c1.9-1.1,3.9-1.7,5.8-1.9c2-0.2,3.9-0.1,5.8,0.5c1.9,0.6,3.8,1.6,5.7,3.1c1.8,1.5,3.2,3.1,4.2,4.9
		c1,1.8,1.5,3.6,1.7,5.6c0.2,2-0.1,4-0.7,6.1C108.9,348.7,107.9,350.8,106.4,352.9 M101.7,349.5c1.2-1.6,2-3.2,2.5-4.7
		c0.5-1.5,0.7-3,0.6-4.4c-0.1-1.4-0.4-2.6-1-3.8c-0.6-1.2-1.4-2.1-2.4-3c-1.1-0.9-2.2-1.4-3.5-1.8c-1.3-0.3-2.5-0.4-3.9-0.2
		c-1.3,0.2-2.7,0.7-4.1,1.6c-1.4,0.8-2.8,2-4.1,3.4c-1.3,1.5-2.3,3-2.9,4.5c-0.6,1.5-0.9,3-0.9,4.4c0,1.4,0.3,2.8,1,4.1
		c0.6,1.3,1.6,2.4,2.7,3.3c1.2,0.9,2.4,1.6,3.8,1.9c1.4,0.3,2.8,0.4,4.2,0.1c1.4-0.3,2.8-0.9,4.1-1.8
		C99.3,352.4,100.5,351.1,101.7,349.5"/>
	<path class="st2" d="M125.4,345.9c-4.8,7.9-9.6,15.8-14.5,23.8c4.9,3,9.9,5.8,15,8.4c-0.7,1.4-1.4,2.8-2.1,4.2
		c-7-3.6-13.8-7.5-20.5-11.8c5.9-9.1,11.8-18.2,17.6-27.3C122.3,344,123.8,345,125.4,345.9"/>
	<path class="st2" d="M143.6,355.8c3.6,1.7,7.3,3.4,11.1,4.9c2,0.8,3.6,1.9,4.9,3.3c1.3,1.4,2.3,3,2.9,4.8c0.7,1.8,1,3.7,1,5.8
		c0,2.1-0.3,4.2-1,6.3c-0.7,2.2-1.8,4.2-3.1,5.8c-1.3,1.7-2.9,2.9-4.7,3.9c-1.8,0.9-3.7,1.4-5.9,1.5c-2.1,0.1-4.3-0.3-6.5-1.2
		c-4.3-1.8-8.6-3.6-12.8-5.6C134.2,375.3,138.9,365.6,143.6,355.8 M137,383.4c1.9,0.9,3.9,1.7,5.8,2.5c1.5,0.6,3,0.9,4.4,0.9
		c1.4,0,2.8-0.3,4.1-0.8c1.3-0.6,2.4-1.5,3.4-2.6c1-1.2,1.8-2.6,2.4-4.4c0.7-1.9,1-3.6,1-5.2c0-1.5-0.2-2.9-0.7-4.1
		c-0.5-1.2-1.2-2.2-2.2-3.1c-1-0.9-2.1-1.6-3.4-2.1c-1.8-0.7-3.5-1.5-5.2-2.2C143.3,369.3,140.2,376.3,137,383.4"/>
	<path class="st2" d="M189.1,371.2c2.6,9,5.7,17.9,9.4,26.8c1.2-8.2,2.4-16.3,3.6-24.5c1.7,0.3,3.4,0.5,5.1,0.7
		c-1.3,10.8-2.6,21.5-3.9,32.3c-2.2-0.3-4.5-0.6-6.7-0.9c-3.8-9-7.1-18-9.8-27.1c-1.8,8.1-3.5,16.3-5.3,24.4c-2-0.4-3.9-0.9-5.9-1.3
		l7.7-31.6C185.2,370.3,187.2,370.8,189.1,371.2"/>
	<path class="st2" d="M220.1,375.3c-0.4,7.2-0.8,14.3-1.2,21.5c-0.1,1.1,0.1,2.2,0.4,3.1c0.3,0.9,0.8,1.7,1.5,2.3
		c0.6,0.6,1.4,1.1,2.2,1.5c0.9,0.4,1.8,0.5,2.7,0.6c1,0,2-0.1,3-0.4c1-0.3,1.8-0.7,2.6-1.3c0.7-0.6,1.3-1.3,1.8-2.2
		c0.4-0.9,0.6-1.9,0.6-3.1c-0.1-7.2-0.1-14.4-0.2-21.6c1.7,0,3.5,0,5.2-0.1c0.2,7.1,0.5,14.3,0.7,21.4c0.1,1.9-0.3,3.7-1,5.2
		c-0.7,1.5-1.7,2.8-3,3.8c-1.3,1-2.8,1.8-4.5,2.3c-1.7,0.5-3.5,0.7-5.3,0.7c-1.7,0-3.4-0.4-5-0.9c-1.6-0.6-3-1.4-4.1-2.5
		c-1.2-1.1-2.1-2.4-2.7-4s-0.8-3.3-0.7-5.3c0.6-7.1,1.2-14.1,1.8-21.2C216.6,375.1,218.4,375.2,220.1,375.3"/>
	<path class="st2" d="M268.8,372.4c0.3,1.5,0.6,3,0.8,4.6c-3.3,0.6-6.5,1.1-9.8,1.5c1.2,9.2,2.5,18.4,3.7,27.6c-2,0.3-4,0.5-6,0.7
		c-1-9.2-2-18.5-3-27.7c-3.3,0.4-6.6,0.6-9.9,0.8c-0.1-1.5-0.2-3.1-0.3-4.6C252.6,374.8,260.7,373.8,268.8,372.4"/>
	<path class="st2" d="M299.6,374.4c0.5,1.4,0.5,2.7,0.2,4.2c-0.3,1.4-1.1,2.8-2.3,4.1c0.8,0,1.5,0.2,2.1,0.5
		c0.6,0.3,1.2,0.7,1.7,1.1c0.5,0.5,0.9,1,1.3,1.5c0.4,0.6,0.6,1.2,0.8,1.8c0.5,1.5,1,3,1.5,4.5c0.2,0.6,0.5,1.2,1.1,1.8
		c0.5,0.7,1.2,1.3,2,1.9c-2.1,0.7-4.2,1.4-6.3,2c-0.4-0.3-0.7-0.6-0.9-0.9c-0.3-0.3-0.5-0.7-0.7-1c-0.2-0.3-0.3-0.7-0.5-1
		c-0.1-0.3-0.2-0.6-0.3-0.9c-0.5-1.6-1-3.2-1.4-4.7c-0.1-0.5-0.4-0.9-0.7-1.3c-0.3-0.4-0.7-0.7-1.2-1c-0.5-0.3-1-0.4-1.7-0.5
		c-0.7-0.1-1.4,0-2.2,0.3c-2.8,0.8-5.5,1.5-8.3,2.1c1,4.3,2.1,8.6,3.1,13c-2,0.5-3.9,0.9-5.9,1.3c-2.2-10.6-4.5-21.2-6.7-31.8
		c4.3-0.9,8.5-1.9,12.7-3.1c1.5-0.4,3-0.6,4.3-0.4c1.4,0.2,2.6,0.6,3.7,1.2c1.1,0.6,2,1.4,2.8,2.3
		C298.6,372.2,299.2,373.3,299.6,374.4 M282.8,384.3c2.7-0.6,5.4-1.3,8.1-2.1c0.7-0.2,1.2-0.5,1.8-0.9c0.5-0.4,0.9-0.9,1.3-1.4
		c0.3-0.5,0.5-1.1,0.6-1.8c0.1-0.7,0-1.3-0.2-2c-0.2-0.7-0.5-1.3-0.9-1.8c-0.4-0.5-0.9-0.9-1.4-1.2c-0.5-0.3-1.1-0.5-1.8-0.6
		c-0.6-0.1-1.3,0-2,0.2c-2.6,0.7-5.2,1.4-7.8,2C281.3,377.9,282.1,381.1,282.8,384.3"/>
	<path class="st2" d="M308.6,360.9c4.1,10.1,8.1,20.1,12.2,30.2c-1.9,0.8-3.8,1.5-5.7,2.2c-3.8-10.2-7.6-20.3-11.4-30.5
		C305.4,362.2,307,361.6,308.6,360.9"/>
	<path class="st2" d="M336.3,347.3c0.8,1.3,1.6,2.7,2.4,4c-2.9,1.7-5.9,3.4-8.9,5c4.3,8.2,8.7,16.4,13,24.7c-1.8,1-3.6,1.9-5.5,2.8
		c-4.1-8.3-8.3-16.7-12.4-25c-3,1.5-6.1,2.9-9.2,4.3c-0.6-1.4-1.2-2.8-1.9-4.3C321.6,355.3,329.1,351.5,336.3,347.3"/>
	<path class="st2" d="M345.8,341.3c6,9,12,18,18.1,27c-1.7,1.2-3.5,2.3-5.2,3.4c-5.8-9.2-11.6-18.3-17.4-27.5
		C342.8,343.2,344.3,342.3,345.8,341.3"/>
	<path class="st2" d="M385.1,330.3c1.7,1.8,3.1,3.7,4,5.8c0.9,2,1.4,4.1,1.3,6.2c0,2.1-0.6,4.2-1.6,6.3c-1.1,2.1-2.6,4-4.8,5.8
		c-2.1,1.8-4.3,3-6.5,3.6c-2.2,0.6-4.3,0.8-6.4,0.4c-2.1-0.4-4-1.2-5.8-2.5c-1.8-1.3-3.4-3-4.9-5s-2.5-4.1-3.2-6.2
		c-0.7-2.1-0.9-4.1-0.8-6.1c0.1-2,0.7-3.8,1.6-5.6c0.9-1.8,2.3-3.4,4.1-4.9c1.8-1.5,3.7-2.6,5.6-3.2c1.9-0.6,3.9-0.8,5.9-0.6
		c2,0.2,3.9,0.8,5.9,1.8C381.5,327,383.3,328.4,385.1,330.3 M380.7,334.3c-1.3-1.5-2.7-2.6-4.1-3.4c-1.4-0.8-2.8-1.3-4.2-1.5
		c-1.4-0.2-2.7-0.1-3.9,0.2c-1.3,0.4-2.4,1-3.4,1.8c-1,0.9-1.9,1.9-2.4,3c-0.6,1.2-0.9,2.4-0.9,3.8c0,1.4,0.2,2.8,0.7,4.3
		c0.5,1.5,1.4,3.1,2.6,4.7c1.2,1.6,2.5,2.8,3.8,3.7c1.4,0.9,2.7,1.5,4.1,1.8c1.4,0.3,2.8,0.2,4.2-0.1c1.4-0.4,2.6-1,3.8-2
		c1.2-1,2.1-2.1,2.7-3.4c0.6-1.3,0.9-2.7,0.9-4.1c0-1.5-0.3-2.9-0.9-4.5C383,337.3,382,335.8,380.7,334.3"/>
	<path class="st2" d="M382.8,309.4c9.3,2.1,18.8,3.6,28.7,4.5c-6.4-5.1-12.9-10.3-19.3-15.4c1.2-1.5,2.4-3,3.5-4.5
		c8.7,6.5,17.3,13,26,19.5c-1.5,2-3,4-4.6,5.9c-10-0.8-19.8-2.2-29.2-4.3c6.1,5.6,12.2,11.3,18.3,16.9c-1.5,1.6-2.9,3.2-4.4,4.7
		c-7.8-7.6-15.5-15.1-23.3-22.7C379.9,312.5,381.4,310.9,382.8,309.4"/>
</g>
</svg>
